<svg height="85.333336" viewBox="0 0 85.333336 85.333336" width="85.333336" xmlns="http://www.w3.org/2000/svg"><g transform="matrix(.13333333 0 0 -.13333333 0 85.333333)"><path d="m640 320c0-176.73-143.27-320-320-320s-320 143.27-320 320 143.27 320 320 320 320-143.27 320-320" fill="#7db6d8"/><path d="m480 100h-320c-22.094 0-40 17.91-40 40v265 55-35-265c0-22.09 17.906-40 40-40h320c22.094 0 40 17.91 40 40v-20c0-22.09-17.906-40-40-40" fill="#6594b2"/><path d="m480 520h-320c-22.094 0-40-17.906-40-40v-55-265c0-22.09 17.906-40 40-40h320c22.094 0 40 17.91 40 40v265 55c0 22.094-17.906 40-40 40" fill="#e08e4c"/><path d="m480 140h-320v320-300h320z" fill="#b77744"/><path d="m160 160h320v320h-320z" fill="#fff"/><g fill="#e1e3cc"><path d="m420 380h-200v20h200z"/><path d="m420 340h-200v20h200z"/><path d="m420 300h-200v20h200z"/><path d="m420 260h-200v20h200z"/><path d="m420 220h-200v20h200z"/></g><path d="m400 480h-160v40h160v-30z" fill="#b77744"/><path d="m370 440h-100c-16.57 0-30 13.43-30 30v10h160v-10c0-16.57-13.43-30-30-30" fill="#d4d3d1"/><path d="m370 540h-130v-50c0-16.57 13.43-30 30-30h100c16.57 0 30 13.43 30 30v10 10 30z" fill="#495672"/></g></svg>